# xmcd CD database file
#
# Track frame offsets:
#	150
#	20585
#	42045
#	54188
#	68088
#	82518
#	104483
#	120143
#	133485
#	151235
#	163588
#	176623
#	197160
#	214475
#	230640
#	253270
#	265390
#	283555
#	298365
#
# Disc length: 4266 seconds
#
# Revision: 4
# Processed by: cddbd v1.4PL0 Copyright (c) Steve Scherf et al.
# Submitted via: Feurio! 1.65 - http://www.feurio.com
#
DISCID=1710a813
DTITLE=Various Artist - Trax From Stax
DYEAR=1900
DGENRE=Funk
TTITLE0=Isaac Hayes - Theme From 'Shaft'
TTITLE1=The Staple Singers - Respect Yourself
TTITLE2=Jean Knight - Mr. Big Stuff
TTITLE3=Eddie Floyd - Knock on Wood
TTITLE4=Rufus Thomas - Do The Funky Chicken
TTITLE5=Booker T. and The M.G.'s - Time is Tight
TTITLE6=The Emotions - The Best Part of a Love Affair
TTITLE7=Carla Thomas - I'll Never Stop Loving You
TTITLE8=Otis Redding - Try a Little Tenderness
TTITLE9=Johnny Taylor - Who's Making Love
TTITLE10=The Sweet Inspiration - Sweet Inspiration
TTITLE11=The Bar Kays - Holy Ghost
TTITLE12=Shirley Brown - Woman to Woman
TTITLE13=Steve Cropper - In The Midnight Hour
TTITLE14=The Dramatics - In The Rain
TTITLE15=Judy Clay and William Bell - Private Number
TTITLE16=Mel and Tim - Starting All Over Again
TTITLE17=Major Lance - Ain't no Sweat
TTITLE18=Booker T. and The M.G.'s - Melting Pot
EXTD=ZYX Music SCD 001-2 (P) 1994 (?)
EXTT0=
EXTT1=
EXTT2=
EXTT3=
EXTT4=
EXTT5=
EXTT6=
EXTT7=
EXTT8=
EXTT9=
EXTT10=
EXTT11=
EXTT12=
EXTT13=
EXTT14=
EXTT15=
EXTT16=
EXTT17=
EXTT18=
PLAYORDER=
